<svg xmlns="http://www.w3.org/2000/svg" xmlns:xlink="http://www.w3.org/1999/xlink" viewBox="0 0 1080 1080" width="1080" height="1080">
 <g className="page" style="">
  <rect x="0" y="0" width="1080" height="1080" fill="rgba(173,45,45,0)">
  </rect>
  <g className="element" id="XYTm4pi_rr" transform="translate(389.9999999999998, -150) rotate(0)" opacity="1" style="transform-origin:top left; filter:;">
   <g>
    
    <defs>
    <clipPath id="clip-XYTm4pi_rr">
      <path d="M 150 150 m -150, 0 a 150,150 0 1,0 300,0 a 150,150 0 1,0 -300,0" />
    </clipPath>
  </defs>

  <!-- Path for the fill -->
  <path d="M 150 150 m -150, 0 a 150,150 0 1,0 300,0 a 150,150 0 1,0 -300,0" fill="rgba(255,255,255,1)" transform="scale(1, 1)"/>

  <!-- Path for the stroke, clipped by the star path -->
  <path d="M 150 150 m -150, 0 a 150,150 0 1,0 300,0 a 150,150 0 1,0 -300,0" fill="none" stroke="#0c0c0c" stroke-width="0" clip-path="url(#clip-XYTm4pi_rr)" transform="scale(1, 1)" stroke-dasharray=""/>
    
     </g>
  </g>
  <g className="element" id="yylGkBk0uo" transform="translate(-150, 390) rotate(0)" opacity="1" style="transform-origin:top left; filter:;">
   <g>
    
    <defs>
    <clipPath id="clip-yylGkBk0uo">
      <path d="M 150 150 m -150, 0 a 150,150 0 1,0 300,0 a 150,150 0 1,0 -300,0" />
    </clipPath>
  </defs>

  <!-- Path for the fill -->
  <path d="M 150 150 m -150, 0 a 150,150 0 1,0 300,0 a 150,150 0 1,0 -300,0" fill="rgba(255,255,255,1)" transform="scale(1, 1)"/>

  <!-- Path for the stroke, clipped by the star path -->
  <path d="M 150 150 m -150, 0 a 150,150 0 1,0 300,0 a 150,150 0 1,0 -300,0" fill="none" stroke="#0c0c0c" stroke-width="0" clip-path="url(#clip-yylGkBk0uo)" transform="scale(1, 1)" stroke-dasharray=""/>
    
     </g>
  </g>
  <g className="element" id="IrjW-9H_O6" transform="translate(390, 930.0000000000003) rotate(0)" opacity="1" style="transform-origin:top left; filter:;">
   <g>
    
    <defs>
    <clipPath id="clip-IrjW-9H_O6">
      <path d="M 150 150 m -150, 0 a 150,150 0 1,0 300,0 a 150,150 0 1,0 -300,0" />
    </clipPath>
  </defs>

  <!-- Path for the fill -->
  <path d="M 150 150 m -150, 0 a 150,150 0 1,0 300,0 a 150,150 0 1,0 -300,0" fill="rgba(255,255,255,1)" transform="scale(1, 1)"/>

  <!-- Path for the stroke, clipped by the star path -->
  <path d="M 150 150 m -150, 0 a 150,150 0 1,0 300,0 a 150,150 0 1,0 -300,0" fill="none" stroke="#0c0c0c" stroke-width="0" clip-path="url(#clip-IrjW-9H_O6)" transform="scale(1, 1)" stroke-dasharray=""/>
    
     </g>
  </g>
  <g className="element" id="_AWBdn4n2v" transform="translate(930.0000000000002, 390.00000000000006) rotate(0)" opacity="1" style="transform-origin:top left; filter:;">
   <g>
    
    <defs>
    <clipPath id="clip-_AWBdn4n2v">
      <path d="M 150 150 m -150, 0 a 150,150 0 1,0 300,0 a 150,150 0 1,0 -300,0" />
    </clipPath>
  </defs>

  <!-- Path for the fill -->
  <path d="M 150 150 m -150, 0 a 150,150 0 1,0 300,0 a 150,150 0 1,0 -300,0" fill="rgba(255,255,255,1)" transform="scale(1, 1)"/>

  <!-- Path for the stroke, clipped by the star path -->
  <path d="M 150 150 m -150, 0 a 150,150 0 1,0 300,0 a 150,150 0 1,0 -300,0" fill="none" stroke="#0c0c0c" stroke-width="0" clip-path="url(#clip-_AWBdn4n2v)" transform="scale(1, 1)" stroke-dasharray=""/>
    
     </g>
  </g>
 </g>
</svg>
